<svg width="75" height="74" viewBox="0 0 75 74" fill="none" xmlns="http://www.w3.org/2000/svg">
<path d="M37.9095 73.4306C58.3708 73.4306 74.9579 57.0986 74.9579 36.9521C74.9579 16.8056 58.3708 0.473682 37.9095 0.473682C17.4482 0.473682 0.861084 16.8056 0.861084 36.9521C0.861084 57.0986 17.4482 73.4306 37.9095 73.4306Z" fill="#DA0000"/>
<path d="M61.5712 25.2466C61.2913 24.2088 60.7378 23.2623 59.9667 22.5031C59.1956 21.7438 58.2343 21.1988 57.1803 20.9232C53.3547 19.9288 37.9096 19.9288 37.9096 19.9288C37.9096 19.9288 22.4591 19.9288 18.606 20.9448C17.5571 21.2246 16.6015 21.7714 15.8355 22.5304C15.0695 23.2894 14.5201 24.2337 14.2426 25.2682C13.2107 29.0511 13.2107 36.9737 13.2107 36.9737C13.2107 36.9737 13.2107 44.8855 14.2426 48.6793C14.5201 49.7138 15.0695 50.6581 15.8355 51.417C16.6015 52.176 17.5571 52.7229 18.606 53.0026C22.4481 54.0186 37.9096 54.0186 37.9096 54.0186C37.9096 54.0186 53.3547 54.0186 57.2077 53.0026C58.2617 52.727 59.223 52.182 59.9941 51.4228C60.7652 50.6635 61.3188 49.717 61.5987 48.6793C62.636 44.8963 62.636 36.9737 62.636 36.9737C62.636 36.9737 62.6086 29.0403 61.5712 25.2466ZM32.9699 44.2478V29.6564L45.7968 36.9521L32.9699 44.2478Z" fill="white"/>
</svg>
